<svg id="whatsapp-icon" xmlns="http://www.w3.org/2000/svg" width="50" height="49.999" viewBox="0 0 50 49.999">
  <path id="Trazado_1" data-name="Trazado 1" d="M42.749,7.185A25.3,25.3,0,0,0,25.093,0C5.99,0-6.006,20.7,3.533,37.162L0,50l13.2-3.442a26.171,26.171,0,0,0,11.908,3.015c22.152,0,33.179-26.8,17.612-42.306Z" transform="translate(0)" fill="#eceff1"/>
  <path id="Trazado_2" data-name="Trazado 2" d="M22.832,43.185l-.012,0h-.033A20.991,20.991,0,0,1,11.5,39.862L3.692,41.893,5.786,34.3l-.5-.781A20.559,20.559,0,0,1,2.13,22.56C2.13,4.241,24.515-4.919,37.469,8.029,50.392,20.841,41.319,43.185,22.832,43.185Z" transform="translate(2.307 2.129)" fill="#4caf50"/>
  <path id="Trazado_3" data-name="Trazado 3" d="M30,22.924l-.019.156c-.627-.312-3.681-1.806-4.25-2.012-1.277-.473-.917-.075-3.369,2.733-.365.406-.727.437-1.346.156a16.908,16.908,0,0,1-5.006-3.094,18.9,18.9,0,0,1-3.458-4.312c-.61-1.054.667-1.2,1.829-3.4a1.145,1.145,0,0,0-.052-1.092c-.156-.312-1.4-3.375-1.921-4.6-.5-1.217-1.015-1.062-1.4-1.062-1.2-.1-2.077-.087-2.85.717-3.362,3.7-2.515,7.508.362,11.562,5.654,7.4,8.667,8.762,14.175,10.654a8.619,8.619,0,0,0,3.917.252c1.2-.19,3.681-1.5,4.2-2.971a5.157,5.157,0,0,0,.375-2.969c-.154-.281-.562-.437-1.187-.719Z" transform="translate(6.474 6.882)" fill="#fafafa"/>
</svg>
